M48
;Layer_Color=9474304
;FILE_FORMAT=2:4
INCH,TZ
;TYPE=PLATED
T1F00S00C0.0118
T2F00S00C0.0300
T3F00S00C0.0315
T4F00S00C0.0354
T5F00S00C0.0362
T6F00S00C0.0394
T7F00S00C0.0433
T8F00S00C0.0472
T9F00S00C0.0906
T10F00S00C0.1181
;TYPE=NON_PLATED
T11F00S00C0.0394
%
T01
X2303Y1811
X3287
X4272
X5256
Y3780
X4272
X4090Y4970
X1811Y4764
X2303Y3780
X1319
X1811Y2795
X6240Y3780
X8209
X9193
X10177
X12146
X13130
X12638Y4764
X11530Y4960
X12638Y2795
X13130Y1811
X14114
X15098
X16083
X16300Y3810
X15210
X17176Y4193
X17580Y3810
X18660Y3789
X19968Y3762
X19620Y4228
X21090Y3780
X12146Y1811
X11161
X10177
X9193
X8209
X7224
X6240
X8701Y2795
X7810Y4950
X22040Y4258
X22445Y3775
X23560Y3790
X24450Y4248
X24449Y2795
X24941Y1811
X25925
X26909
X27894
X28878
X29862
X30846
X31831
X32815
X33799
X34783
X35768
X36752
Y3780
X34890Y4190
X32323Y4764
X31339
X30354
X29370
X28386
X27402
X25925Y3780
X23957Y1811
X22972
X21988
X35276Y827
X33799Y5748
X32815
X31831
X30846
X29862
X28878
X27894
X28386Y6732
X29370
X30354
X31339
X32323
X32815Y7717
X33799
X31831
X30846
X29862
X28878
X27894
X28386Y8701
X29370
X30354
X31339
X32323
X31339Y10669
X30354
X29370
X28386
X27402
X26417
X25840Y9910
Y9550
Y9130
X25925Y7717
Y5748
X23957
Y7717
X22780Y9109
X23465Y10669
X24449
X25925Y11654
X26909
X27894
X28878
X29862
X30846
X31339Y12638
X32323
X30354
X29370
X28386
X27402
X26417
X26909Y13622
X25925
X27270Y14280
X26950Y15240
X27570Y15580
X27910Y15621
X28280Y14790
X28690Y16159
X27770Y16900
X27279Y16618
X26500Y16400
X26510Y17170
X26909Y17559
X27720Y17680
X28410Y17974
X29257Y18103
X28990Y18780
X28878Y19528
X29862
X30846
X31831
X32815
X33799
X34291Y20512
Y18543
X33799Y17559
X34291Y16575
X33799Y15591
X32815
X31320Y15550
X31330Y14570
X31320Y16540
X31610Y16800
X32580Y18340
X31339Y20512
X30354
X29370
X27402
X26417
X25433
X24449
X23465
X22480
X21880Y20830
X22972Y19528
X23957
X23810Y18960
X24449Y18543
X25433
X26417
X26909Y19528
X25925
X24941
X22480Y18543
Y16575
X21850Y17199
X24210Y15890
X25290Y15590
X22480Y12638
X21496
Y10669
X21988Y5748
X27402Y6732
Y8701
X34140Y10350
X34291Y14606
X35276
X34800Y15320
X35780
X36260Y16575
X20560Y16650
Y17190
X19960Y17169
X19003Y16793
X18700Y16440
X18080Y15850
X16633Y15162
X15360Y15064
X14760Y15431
X14270
X13760
X13170Y15660
X12310Y15570
X11880Y15670
X12350Y16840
X12620Y18830
X13214Y18527
X13978Y18290
X14760Y18640
X15098Y19528
X15690Y18310
X16195Y18258
X17580Y18300
X16950Y19350
X16935Y20596
X16680Y20820
X18520Y20830
X19035Y19528
X19120Y17770
X20540Y18370
X21004Y19528
Y15591
Y13622
X20512Y10669
X19528
X16575Y12638
X15663Y14385
X14830Y13970
X15370Y16780
X16429Y16450
X10060Y16250
X10669Y14606
X11161Y13622
X10669Y12638
X10050Y12870
X9193Y13622
X8209
X7224
X6240
X6732Y14606
X6435Y16074
X6180Y16910
X6870Y16900
X7870Y16430
X7880Y15740
X8701Y14606
X9193Y11654
X8209
X7224
X7290Y10890
X6240Y11654
X6732Y12638
X6240Y9685
X5748Y8701
Y6732
X6732
X6750Y7670
X8180Y7689
X7717Y6732
X9685
X10669
X12146Y7717
X12320Y9570
X11880Y9910
X10500Y10140
X10040Y9610
X9570Y9690
X8209Y9685
X8701Y8701
X9193Y5748
X13130
X14114
X15098
X17067
X18051
X19035
X20020
X11010Y11300
X11520Y11840
X11140Y19860
X10210Y19900
X8500Y20034
X6910Y20190
X11654Y20512
X12927Y19890
X5256Y19528
X4272
X3287
X2303
X1319
X1811Y18543
X2303Y17559
X1319
X2795Y16575
X3780
X4272Y15591
X3287
Y13622
X4272
X5256
Y11654
X4272
X3287
X3600Y10530
X2795Y10669
X2370Y10580
X1811Y10669
X1319Y9685
X1811Y8701
X1319Y7717
X1811Y6732
X2795
X3780
X4340Y7670
X3080
X4764Y8701
X5256Y9685
X4272
X3780Y12638
X1319Y13622
X1811Y14606
X5420Y15430
X5380Y17369
X3780Y20512
X1319Y5748
Y21496
X2303
X3287
X2795Y22480
X1811
X2303Y23465
X1319
X1811Y24449
X2795
X3780
X2795Y26417
Y28386
X1811
X2303Y29370
X3287
X2795Y30354
Y32323
X1811
X827
X1319Y33307
X2303
X3287
X4272
X5256
X4764Y32323
X2795Y34291
X1811
X827
X1319Y35276
X2303
X2795Y36260
X1811
X1319Y29370
X6940Y29020
X8720Y28980
X9685Y28386
X10669
X11654
X12620Y27700
X13080Y28870
X13060Y30370
X12610Y30300
X13622Y30354
X14606
X15591
X16575
X17559
X18543
X19035Y31339
X18051
X17067
X16083
X15098
X14114
X14606Y32323
X15591
X16575
X17559
X18543
X19528
X20512
X21004Y33307
X20020
X19035
X18051
X17067
X16083
X15098
X14114
X13130
X12146
X11161
X10250Y33380
X10669Y34291
X11654
X12638
X13622
X14606
X15591
X16575
X17559
X18543
X19528
X20512
X21004Y35276
X20020
X19035
X18051
X17067
X16083
X15098
X14114
X13130
X12146
X11161
X10177
X9193
X8209
X7224
X6240
X6732Y36260
X7717
X8701
X9685
X10669
X11654
X12638
X13622
X14606
X15591
X16575
X17559
X18543
X19528
X20512
X21004Y31339
X20512Y30354
X21004Y29370
X20512Y28386
X17559
X16575
X15591
X14606
X15098Y29370
X16083
X17067
X14114
X14606Y26417
X15591
X16575
X17559
X18543
X20020Y25433
X20512Y24449
X19528
X19035Y23465
X18051
X18543Y22480
X19528
X20512
X20800Y21840
X21004Y23465
X17559Y22480
X17880Y21250
X16706Y21280
X13670Y21290
X13600Y21590
X13188Y21432
X14606Y22480
X15098Y23465
X14114
X14606Y24449
X15591
X16575
X17067Y25433
X16083
X15098
X14114
X12146
X11161
X10177
X9193
X8209
X7224
Y23465
X8209
X9193
X10177
X11161
X12146
X11654Y24449
X10669
X9685
X8701
Y22480
X9685
X10669
X11654
X9193Y21496
X6732Y22480
X5748
X6240Y23465
X8740Y26450
X9685Y26417
X10669
X11654
X11082Y31490
X11654Y32323
X12638
X13622
X8200Y32430
X8209Y33307
X8701Y34291
X9685
X7717
X6732
X5748
Y36260
X8270Y31550
X21988Y31339
X22972
X23957
X24941
X25925
X26909
X27894
X28878
X29862
X30846
X31831
X32815
X33799
X34783
X35276Y32323
X36260
X36752Y33307
X35768
X34783
X33799
X32815
X31831
X30846
X29862
X28878
X27894
X26909
X25925
X24941
X23957
X22972
X21988
X22480Y34291
X23465
X24449
X25433
X26417
X27402
X28386
X29370
X30354
X31339
X32323
X31831Y35276
X30846
X29862
X28878
X27894
X26909
X25925
X24941
X23957
X22972
X21988
X22480Y36260
X23465
X24449
X25433
X26417
X27402
X28386
X29370
X30354
X31339
X32323
X35276
X35768Y35276
X36752
X36260Y34291
X35276
X34291Y32323
X33307
X32323
X31339
X30354
X29370
X28386
X27402
X26417
X25433
X24449
X23465
X22480
X21496
Y34291
Y36260
Y30354
X23465
X24449
X25433
X26417
X27402
X28386
X29370
X30354
X31339
X32323
X31831Y29370
X30846
X29862
X28878
X27894
X26909
X27402Y28386
X28386
X29370
X30354
X31339
X32323
X33307
X34291
X33799Y27402
X32815
X31831
X30846
X29862
X28878
X29370Y26417
X30354
X31339
X32323
X33307
X34291
X33799Y25433
X32815
X31831
X30846
X29862
X28878
X29370Y24449
X30354
X31339
X32323
X33307
X34291
X36260
Y26417
Y22480
X33799Y21496
X32323Y22480
X31339
X30354
X29370
X29862Y23465
X30846
X31831
X28878
X26909
X25925
X24941
X23957
X22972
X21988
X22480Y24449
X23465
X24449
X25433
X26417
X27402
X26909Y25433
X25925
X24941
X23957
X22972
X21988
X22480Y26417
X23465
X24449
X25433
X26417
X27402
X26417Y28386
X25433
X24449
X23465
X23957Y29370
X24449Y22480
X25433
X26417
X27402
X23465
X22480
X21496
Y24449
X34291Y30354
T02
X5700Y14330
X7747
T03
X24570Y11670
Y12670
Y13670
T04
X16930Y1800
X17930
X18930
X19930
X20930
Y2800
X19930
X18930
X17930
X16930
X33220Y2840
X34220
X35220
X36220
Y4944
X35220
X34220
X33220
Y7048
X34220
X35220
X36220
Y9152
X35220
X34220
X33220
Y11256
X34220
X35220
X36220
Y13360
X35220
X34220
X33220
X32220
Y11256
X2360Y12550
X1360
X19650Y27790
Y28790
Y29790
Y30790
X22650
Y29790
Y28790
Y27790
X36020Y28180
Y29180
Y30180
Y31180
T05
X2896Y17668
X3684
Y18652
X2896
T06
X2772Y2670
X4150
X6427
X7805
X10082
X11460
X1580Y30192
Y31570
X6260Y31264
Y30280
Y32248
Y33233
T07
X1450Y25730
Y26730
Y27730
T08
X25338Y29420
X33350
T09
X1829Y15790
Y20530
T10
X800Y860
X36180
X4070Y23040
X4130Y35210
X890Y36090
X33580Y35220
X36130Y36090
X33580Y23040
T11
X36277Y15681
X36276Y18831
M30
