%TF.GenerationSoftware,Altium Limited,Altium Designer,20.2.4 (192)*%
G04 Layer_Color=16711935*
%FSLAX26Y26*%
%MOIN*%
%TF.SameCoordinates,E583F5DD-14CA-44D8-B3B7-8EACC7EC20E5*%
%TF.FilePolarity,Positive*%
%TF.FileFunction,Other,Mechanical_5*%
%TF.Part,Single*%
G01*
G75*
%TA.AperFunction,NonConductor*%
%ADD74C,0.007874*%
G36*
X530684Y1847622D02*
X530975Y1847585D01*
X531303Y1847513D01*
X531667Y1847440D01*
X532067Y1847367D01*
X532941Y1847076D01*
X533414Y1846858D01*
X533851Y1846639D01*
X534324Y1846348D01*
X534797Y1846020D01*
X535270Y1845656D01*
X535707Y1845219D01*
X535744Y1845183D01*
X535816Y1845110D01*
X535926Y1844965D01*
X536071Y1844783D01*
X536253Y1844564D01*
X536435Y1844273D01*
X536654Y1843946D01*
X536836Y1843545D01*
X537054Y1843145D01*
X537272Y1842671D01*
X537454Y1842198D01*
X537636Y1841652D01*
X537782Y1841070D01*
X537891Y1840451D01*
X537964Y1839832D01*
X538000Y1839141D01*
Y1838813D01*
X537964Y1838595D01*
X537928Y1838303D01*
X537891Y1837976D01*
X537818Y1837612D01*
X537745Y1837211D01*
X537527Y1836338D01*
X537163Y1835428D01*
X536945Y1834955D01*
X536690Y1834518D01*
X536362Y1834081D01*
X536035Y1833644D01*
X535998Y1833608D01*
X535926Y1833535D01*
X535816Y1833426D01*
X535671Y1833317D01*
X535489Y1833135D01*
X535234Y1832953D01*
X534979Y1832734D01*
X534652Y1832516D01*
X534288Y1832297D01*
X533923Y1832079D01*
X533050Y1831679D01*
X532031Y1831351D01*
X531485Y1831242D01*
X530902Y1831169D01*
X530502Y1834263D01*
X530538D01*
X530611Y1834300D01*
X530757Y1834336D01*
X530939Y1834372D01*
X531157Y1834409D01*
X531412Y1834482D01*
X531958Y1834664D01*
X532613Y1834918D01*
X533232Y1835246D01*
X533814Y1835610D01*
X534324Y1836047D01*
X534360Y1836120D01*
X534506Y1836265D01*
X534688Y1836556D01*
X534870Y1836920D01*
X535088Y1837357D01*
X535270Y1837903D01*
X535416Y1838522D01*
X535452Y1839177D01*
Y1839396D01*
X535416Y1839541D01*
X535380Y1839941D01*
X535270Y1840451D01*
X535088Y1841034D01*
X534833Y1841652D01*
X534470Y1842271D01*
X533960Y1842853D01*
X533887Y1842926D01*
X533669Y1843108D01*
X533341Y1843327D01*
X532904Y1843618D01*
X532358Y1843909D01*
X531740Y1844128D01*
X531011Y1844310D01*
X530211Y1844382D01*
X530174D01*
X530101D01*
X529992D01*
X529847Y1844346D01*
X529446Y1844310D01*
X528973Y1844200D01*
X528391Y1844055D01*
X527808Y1843800D01*
X527226Y1843436D01*
X526680Y1842963D01*
X526607Y1842890D01*
X526462Y1842708D01*
X526243Y1842417D01*
X525988Y1842016D01*
X525734Y1841507D01*
X525515Y1840888D01*
X525370Y1840196D01*
X525297Y1839432D01*
Y1839104D01*
X525333Y1838850D01*
X525370Y1838522D01*
X525442Y1838158D01*
X525515Y1837721D01*
X525624Y1837248D01*
X522894Y1837612D01*
Y1837794D01*
X522931Y1837939D01*
Y1838413D01*
X522858Y1838813D01*
X522785Y1839286D01*
X522676Y1839832D01*
X522494Y1840451D01*
X522239Y1841034D01*
X521912Y1841652D01*
Y1841689D01*
X521875Y1841725D01*
X521730Y1841907D01*
X521475Y1842162D01*
X521147Y1842453D01*
X520674Y1842744D01*
X520128Y1842999D01*
X519509Y1843181D01*
X519145Y1843254D01*
X518745D01*
X518708D01*
X518672D01*
X518453D01*
X518162Y1843181D01*
X517762Y1843108D01*
X517325Y1842963D01*
X516852Y1842781D01*
X516379Y1842489D01*
X515942Y1842089D01*
X515905Y1842053D01*
X515760Y1841871D01*
X515578Y1841616D01*
X515360Y1841288D01*
X515178Y1840851D01*
X514995Y1840342D01*
X514850Y1839759D01*
X514813Y1839104D01*
Y1838813D01*
X514886Y1838486D01*
X514959Y1838049D01*
X515105Y1837575D01*
X515287Y1837102D01*
X515578Y1836593D01*
X515942Y1836120D01*
X515978Y1836083D01*
X516160Y1835938D01*
X516415Y1835719D01*
X516779Y1835464D01*
X517252Y1835209D01*
X517835Y1834955D01*
X518526Y1834736D01*
X519327Y1834591D01*
X518781Y1831497D01*
X518745D01*
X518635Y1831533D01*
X518490Y1831570D01*
X518271Y1831606D01*
X518017Y1831679D01*
X517726Y1831788D01*
X517034Y1832006D01*
X516233Y1832370D01*
X515432Y1832807D01*
X514668Y1833353D01*
X513976Y1834045D01*
X513940Y1834081D01*
X513904Y1834154D01*
X513831Y1834263D01*
X513721Y1834409D01*
X513576Y1834591D01*
X513430Y1834845D01*
X513285Y1835100D01*
X513103Y1835428D01*
X512812Y1836156D01*
X512520Y1836993D01*
X512338Y1837976D01*
X512265Y1838486D01*
Y1839396D01*
X512302Y1839796D01*
X512375Y1840269D01*
X512484Y1840851D01*
X512666Y1841507D01*
X512884Y1842162D01*
X513176Y1842817D01*
Y1842853D01*
X513212Y1842890D01*
X513321Y1843108D01*
X513539Y1843436D01*
X513794Y1843800D01*
X514158Y1844237D01*
X514559Y1844674D01*
X515032Y1845110D01*
X515578Y1845474D01*
X515651Y1845511D01*
X515833Y1845620D01*
X516160Y1845765D01*
X516561Y1845947D01*
X517034Y1846130D01*
X517580Y1846275D01*
X518199Y1846384D01*
X518817Y1846421D01*
X518890D01*
X519109D01*
X519400Y1846384D01*
X519800Y1846312D01*
X520274Y1846202D01*
X520783Y1846020D01*
X521293Y1845802D01*
X521802Y1845511D01*
X521875Y1845474D01*
X522021Y1845365D01*
X522275Y1845147D01*
X522567Y1844855D01*
X522894Y1844492D01*
X523258Y1844055D01*
X523586Y1843545D01*
X523913Y1842926D01*
Y1842963D01*
X523950Y1843035D01*
X523986Y1843145D01*
X524023Y1843290D01*
X524168Y1843691D01*
X524387Y1844200D01*
X524678Y1844783D01*
X525042Y1845365D01*
X525515Y1845911D01*
X526061Y1846421D01*
X526134Y1846457D01*
X526352Y1846603D01*
X526716Y1846821D01*
X527189Y1847040D01*
X527772Y1847258D01*
X528463Y1847476D01*
X529264Y1847622D01*
X530138Y1847658D01*
X530174D01*
X530284D01*
X530466D01*
X530684Y1847622D01*
D02*
G37*
G36*
X525588Y1827784D02*
X525879D01*
X526571Y1827747D01*
X527371Y1827638D01*
X528209Y1827529D01*
X529082Y1827347D01*
X529956Y1827129D01*
X529992D01*
X530065Y1827092D01*
X530174Y1827056D01*
X530320Y1827020D01*
X530720Y1826874D01*
X531230Y1826656D01*
X531812Y1826437D01*
X532395Y1826146D01*
X533014Y1825782D01*
X533596Y1825418D01*
X533669Y1825381D01*
X533851Y1825236D01*
X534106Y1825017D01*
X534433Y1824726D01*
X534797Y1824399D01*
X535161Y1823998D01*
X535562Y1823598D01*
X535889Y1823125D01*
X535926Y1823052D01*
X536035Y1822906D01*
X536180Y1822651D01*
X536362Y1822287D01*
X536581Y1821851D01*
X536763Y1821341D01*
X536981Y1820759D01*
X537163Y1820103D01*
Y1820031D01*
X537199Y1819921D01*
X537236Y1819812D01*
X537272Y1819448D01*
X537345Y1818939D01*
X537418Y1818356D01*
X537491Y1817665D01*
X537527Y1816900D01*
X537563Y1816063D01*
Y1806999D01*
X512375D01*
Y1816682D01*
X512411Y1817337D01*
X512447Y1818065D01*
X512520Y1818793D01*
X512630Y1819521D01*
X512739Y1820140D01*
Y1820176D01*
X512775Y1820249D01*
Y1820358D01*
X512848Y1820504D01*
X512957Y1820904D01*
X513139Y1821414D01*
X513394Y1821996D01*
X513721Y1822615D01*
X514086Y1823234D01*
X514559Y1823816D01*
X514595Y1823853D01*
X514631Y1823889D01*
X514741Y1823998D01*
X514850Y1824144D01*
X515214Y1824508D01*
X515723Y1824945D01*
X516342Y1825418D01*
X517070Y1825928D01*
X517908Y1826401D01*
X518854Y1826801D01*
X518890D01*
X518963Y1826838D01*
X519109Y1826910D01*
X519327Y1826947D01*
X519582Y1827056D01*
X519873Y1827129D01*
X520201Y1827201D01*
X520601Y1827311D01*
X521001Y1827420D01*
X521475Y1827493D01*
X522494Y1827675D01*
X523622Y1827784D01*
X524860Y1827820D01*
X524896D01*
X524969D01*
X525151D01*
X525333D01*
X525588Y1827784D01*
D02*
G37*
%LPC*%
G36*
X524787Y1824399D02*
X524751D01*
X524605D01*
X524423D01*
X524132Y1824362D01*
X523804D01*
X523440Y1824326D01*
X523004Y1824290D01*
X522567Y1824253D01*
X521584Y1824071D01*
X520565Y1823853D01*
X519618Y1823525D01*
X519145Y1823307D01*
X518745Y1823088D01*
X518708D01*
X518635Y1823015D01*
X518526Y1822943D01*
X518381Y1822870D01*
X518017Y1822579D01*
X517580Y1822215D01*
X517107Y1821742D01*
X516634Y1821196D01*
X516233Y1820577D01*
X515905Y1819921D01*
X515869Y1819849D01*
X515833Y1819667D01*
X515723Y1819339D01*
X515614Y1818866D01*
X515542Y1818284D01*
X515432Y1817555D01*
X515396Y1817119D01*
Y1816646D01*
X515360Y1816172D01*
Y1810348D01*
X534579D01*
Y1816318D01*
X534542Y1816573D01*
X534506Y1817119D01*
X534470Y1817737D01*
X534397Y1818393D01*
X534288Y1819048D01*
X534142Y1819594D01*
X534106Y1819667D01*
X534069Y1819849D01*
X533960Y1820103D01*
X533814Y1820431D01*
X533596Y1820795D01*
X533378Y1821159D01*
X533123Y1821523D01*
X532832Y1821887D01*
X532759Y1821924D01*
X532613Y1822069D01*
X532358Y1822287D01*
X531994Y1822542D01*
X531521Y1822833D01*
X530975Y1823161D01*
X530356Y1823452D01*
X529665Y1823707D01*
X529628D01*
X529556Y1823744D01*
X529446Y1823780D01*
X529301Y1823816D01*
X529119Y1823853D01*
X528864Y1823926D01*
X528609Y1823998D01*
X528318Y1824071D01*
X527590Y1824180D01*
X526753Y1824290D01*
X525806Y1824362D01*
X524787Y1824399D01*
D02*
G37*
%LPD*%
D74*
X470579Y1724201D02*
Y1889799D01*
X605421D01*
Y1724201D02*
Y1889799D01*
X470579Y1724201D02*
X605421D01*
%TF.MD5,a21de22663f6b6fd1db0edeaca604050*%
M02*
