%TF.GenerationSoftware,Altium Limited,Altium Designer,20.2.4 (192)*%
G04 Layer_Color=0*
%FSLAX26Y26*%
%MOIN*%
%TF.SameCoordinates,E583F5DD-14CA-44D8-B3B7-8EACC7EC20E5*%
%TF.FilePolarity,Positive*%
%TF.FileFunction,Profile,NP*%
%TF.Part,Single*%
G01*
G75*
%TA.AperFunction,Profile*%
%ADD105C,0.001000*%
G36*
X973639Y3157033D02*
X965883D01*
X950671Y3160059D01*
X936341Y3165994D01*
X923445Y3174611D01*
X912477Y3185579D01*
X903860Y3198475D01*
X897924Y3212805D01*
X894898Y3228017D01*
Y3235773D01*
Y3243528D01*
X897924Y3258740D01*
X903860Y3273070D01*
X912477Y3285967D01*
X923445Y3296934D01*
X936341Y3305551D01*
X950671Y3311487D01*
X965883Y3314513D01*
X973639D01*
X981394D01*
X996606Y3311487D01*
X1010936Y3305551D01*
X1023832Y3296934D01*
X1034800Y3285967D01*
X1043417Y3273070D01*
X1049353Y3258740D01*
X1052379Y3243528D01*
Y3235773D01*
Y3228017D01*
X1049353Y3212805D01*
X1043417Y3198475D01*
X1034800Y3185579D01*
X1023832Y3174611D01*
X1010936Y3165994D01*
X996606Y3160059D01*
X981394Y3157033D01*
X973639D01*
D01*
D02*
G37*
D105*
X0Y0D02*
X3700000D01*
Y3700000D01*
X0D01*
Y0D01*
%TF.MD5,a7eefc8895738e4dc4e0fec1692010b8*%
M02*
