%TF.GenerationSoftware,Altium Limited,Altium Designer,20.2.4 (192)*%
G04 Layer_Color=16711935*
%FSLAX26Y26*%
%MOIN*%
%TF.SameCoordinates,E583F5DD-14CA-44D8-B3B7-8EACC7EC20E5*%
%TF.FilePolarity,Positive*%
%TF.FileFunction,Other,Mechanical_1*%
%TF.Part,Single*%
G01*
G75*
%TA.AperFunction,NonConductor*%
%ADD53C,0.011811*%
%ADD76C,0.003937*%
G36*
X2450045Y1275375D02*
X2450518Y1275302D01*
X2451100Y1275193D01*
X2451756Y1275011D01*
X2452411Y1274793D01*
X2453066Y1274502D01*
X2453102D01*
X2453139Y1274465D01*
X2453357Y1274356D01*
X2453685Y1274138D01*
X2454049Y1273883D01*
X2454485Y1273519D01*
X2454922Y1273118D01*
X2455359Y1272645D01*
X2455723Y1272099D01*
X2455760Y1272026D01*
X2455869Y1271844D01*
X2456014Y1271517D01*
X2456196Y1271116D01*
X2456378Y1270643D01*
X2456524Y1270097D01*
X2456633Y1269478D01*
X2456669Y1268860D01*
Y1268787D01*
Y1268568D01*
X2456633Y1268277D01*
X2456560Y1267877D01*
X2456451Y1267403D01*
X2456269Y1266894D01*
X2456051Y1266384D01*
X2455760Y1265875D01*
X2455723Y1265802D01*
X2455614Y1265656D01*
X2455396Y1265401D01*
X2455104Y1265110D01*
X2454740Y1264783D01*
X2454303Y1264419D01*
X2453794Y1264091D01*
X2453175Y1263764D01*
X2453211D01*
X2453284Y1263727D01*
X2453394Y1263691D01*
X2453539Y1263654D01*
X2453939Y1263509D01*
X2454449Y1263290D01*
X2455032Y1262999D01*
X2455614Y1262635D01*
X2456160Y1262162D01*
X2456669Y1261616D01*
X2456706Y1261543D01*
X2456852Y1261325D01*
X2457070Y1260961D01*
X2457288Y1260487D01*
X2457507Y1259905D01*
X2457725Y1259214D01*
X2457871Y1258413D01*
X2457907Y1257539D01*
Y1257503D01*
Y1257393D01*
Y1257211D01*
X2457871Y1256993D01*
X2457834Y1256702D01*
X2457762Y1256374D01*
X2457689Y1256010D01*
X2457616Y1255610D01*
X2457325Y1254736D01*
X2457106Y1254263D01*
X2456888Y1253826D01*
X2456597Y1253353D01*
X2456269Y1252880D01*
X2455905Y1252407D01*
X2455468Y1251970D01*
X2455432Y1251934D01*
X2455359Y1251861D01*
X2455213Y1251752D01*
X2455032Y1251606D01*
X2454813Y1251424D01*
X2454522Y1251242D01*
X2454194Y1251024D01*
X2453794Y1250841D01*
X2453394Y1250623D01*
X2452920Y1250405D01*
X2452447Y1250223D01*
X2451901Y1250041D01*
X2451319Y1249895D01*
X2450700Y1249786D01*
X2450081Y1249713D01*
X2449390Y1249677D01*
X2449062D01*
X2448843Y1249713D01*
X2448552Y1249749D01*
X2448225Y1249786D01*
X2447861Y1249859D01*
X2447460Y1249931D01*
X2446587Y1250150D01*
X2445677Y1250514D01*
X2445204Y1250732D01*
X2444767Y1250987D01*
X2444330Y1251315D01*
X2443893Y1251642D01*
X2443857Y1251679D01*
X2443784Y1251752D01*
X2443675Y1251861D01*
X2443566Y1252006D01*
X2443383Y1252188D01*
X2443202Y1252443D01*
X2442983Y1252698D01*
X2442765Y1253025D01*
X2442546Y1253389D01*
X2442328Y1253754D01*
X2441927Y1254627D01*
X2441600Y1255646D01*
X2441491Y1256192D01*
X2441418Y1256775D01*
X2444512Y1257175D01*
Y1257139D01*
X2444548Y1257066D01*
X2444585Y1256920D01*
X2444621Y1256738D01*
X2444657Y1256520D01*
X2444730Y1256265D01*
X2444912Y1255719D01*
X2445167Y1255064D01*
X2445495Y1254445D01*
X2445859Y1253863D01*
X2446296Y1253353D01*
X2446368Y1253317D01*
X2446514Y1253171D01*
X2446805Y1252989D01*
X2447169Y1252807D01*
X2447606Y1252589D01*
X2448152Y1252407D01*
X2448771Y1252261D01*
X2449426Y1252225D01*
X2449644D01*
X2449790Y1252261D01*
X2450190Y1252297D01*
X2450700Y1252407D01*
X2451282Y1252589D01*
X2451901Y1252843D01*
X2452520Y1253207D01*
X2453102Y1253717D01*
X2453175Y1253790D01*
X2453357Y1254008D01*
X2453575Y1254336D01*
X2453867Y1254773D01*
X2454158Y1255319D01*
X2454376Y1255938D01*
X2454558Y1256666D01*
X2454631Y1257466D01*
Y1257503D01*
Y1257575D01*
Y1257685D01*
X2454595Y1257830D01*
X2454558Y1258231D01*
X2454449Y1258704D01*
X2454303Y1259286D01*
X2454049Y1259869D01*
X2453685Y1260451D01*
X2453211Y1260997D01*
X2453139Y1261070D01*
X2452957Y1261216D01*
X2452666Y1261434D01*
X2452265Y1261689D01*
X2451756Y1261944D01*
X2451137Y1262162D01*
X2450445Y1262307D01*
X2449681Y1262380D01*
X2449353D01*
X2449098Y1262344D01*
X2448771Y1262307D01*
X2448407Y1262235D01*
X2447970Y1262162D01*
X2447497Y1262053D01*
X2447861Y1264783D01*
X2448043D01*
X2448188Y1264746D01*
X2448662D01*
X2449062Y1264819D01*
X2449535Y1264892D01*
X2450081Y1265001D01*
X2450700Y1265183D01*
X2451282Y1265438D01*
X2451901Y1265765D01*
X2451938D01*
X2451974Y1265802D01*
X2452156Y1265947D01*
X2452411Y1266202D01*
X2452702Y1266530D01*
X2452993Y1267003D01*
X2453248Y1267549D01*
X2453430Y1268168D01*
X2453503Y1268532D01*
Y1268932D01*
Y1268969D01*
Y1269005D01*
Y1269224D01*
X2453430Y1269515D01*
X2453357Y1269915D01*
X2453211Y1270352D01*
X2453030Y1270825D01*
X2452738Y1271298D01*
X2452338Y1271735D01*
X2452302Y1271772D01*
X2452119Y1271917D01*
X2451865Y1272099D01*
X2451537Y1272318D01*
X2451100Y1272499D01*
X2450591Y1272681D01*
X2450008Y1272827D01*
X2449353Y1272863D01*
X2449062D01*
X2448734Y1272791D01*
X2448298Y1272718D01*
X2447824Y1272572D01*
X2447351Y1272390D01*
X2446841Y1272099D01*
X2446368Y1271735D01*
X2446332Y1271699D01*
X2446186Y1271517D01*
X2445968Y1271262D01*
X2445713Y1270898D01*
X2445458Y1270425D01*
X2445204Y1269842D01*
X2444985Y1269151D01*
X2444840Y1268350D01*
X2441745Y1268896D01*
Y1268932D01*
X2441782Y1269042D01*
X2441818Y1269187D01*
X2441855Y1269406D01*
X2441927Y1269660D01*
X2442037Y1269951D01*
X2442255Y1270643D01*
X2442619Y1271444D01*
X2443056Y1272245D01*
X2443602Y1273009D01*
X2444294Y1273701D01*
X2444330Y1273737D01*
X2444403Y1273774D01*
X2444512Y1273846D01*
X2444657Y1273956D01*
X2444840Y1274101D01*
X2445094Y1274247D01*
X2445349Y1274392D01*
X2445677Y1274574D01*
X2446405Y1274866D01*
X2447242Y1275157D01*
X2448225Y1275339D01*
X2448734Y1275411D01*
X2449644D01*
X2450045Y1275375D01*
D02*
G37*
G36*
X2437086Y1260742D02*
Y1260706D01*
Y1260560D01*
Y1260378D01*
Y1260123D01*
X2437050Y1259796D01*
Y1259432D01*
X2437014Y1258995D01*
X2436977Y1258558D01*
X2436868Y1257575D01*
X2436722Y1256556D01*
X2436504Y1255573D01*
X2436358Y1255100D01*
X2436213Y1254664D01*
Y1254627D01*
X2436176Y1254554D01*
X2436104Y1254445D01*
X2436031Y1254300D01*
X2435812Y1253899D01*
X2435485Y1253389D01*
X2435048Y1252807D01*
X2434538Y1252225D01*
X2433883Y1251606D01*
X2433082Y1251060D01*
X2433046D01*
X2432973Y1250987D01*
X2432864Y1250951D01*
X2432682Y1250841D01*
X2432463Y1250732D01*
X2432172Y1250623D01*
X2431881Y1250514D01*
X2431517Y1250368D01*
X2431117Y1250223D01*
X2430680Y1250113D01*
X2430207Y1250004D01*
X2429661Y1249895D01*
X2429115Y1249822D01*
X2428532Y1249749D01*
X2427222Y1249677D01*
X2426894D01*
X2426640Y1249713D01*
X2426348D01*
X2425984Y1249749D01*
X2425584Y1249786D01*
X2425184Y1249822D01*
X2424273Y1249968D01*
X2423291Y1250186D01*
X2422344Y1250477D01*
X2421434Y1250878D01*
X2421398D01*
X2421325Y1250951D01*
X2421216Y1251024D01*
X2421070Y1251096D01*
X2420670Y1251388D01*
X2420197Y1251788D01*
X2419651Y1252297D01*
X2419141Y1252880D01*
X2418631Y1253608D01*
X2418231Y1254409D01*
Y1254445D01*
X2418195Y1254518D01*
X2418158Y1254664D01*
X2418086Y1254845D01*
X2418013Y1255064D01*
X2417940Y1255355D01*
X2417831Y1255683D01*
X2417758Y1256083D01*
X2417685Y1256520D01*
X2417576Y1256993D01*
X2417503Y1257503D01*
X2417430Y1258049D01*
X2417358Y1258668D01*
X2417321Y1259323D01*
X2417285Y1260014D01*
Y1260742D01*
Y1275302D01*
X2420633D01*
Y1260742D01*
Y1260706D01*
Y1260597D01*
Y1260415D01*
Y1260196D01*
X2420670Y1259941D01*
Y1259614D01*
X2420706Y1258922D01*
X2420779Y1258121D01*
X2420888Y1257321D01*
X2421034Y1256556D01*
X2421107Y1256229D01*
X2421216Y1255901D01*
X2421252Y1255828D01*
X2421325Y1255646D01*
X2421507Y1255391D01*
X2421726Y1255027D01*
X2421980Y1254664D01*
X2422344Y1254263D01*
X2422781Y1253863D01*
X2423291Y1253535D01*
X2423363Y1253499D01*
X2423546Y1253389D01*
X2423873Y1253280D01*
X2424310Y1253135D01*
X2424820Y1252953D01*
X2425475Y1252843D01*
X2426166Y1252734D01*
X2426931Y1252698D01*
X2427295D01*
X2427513Y1252734D01*
X2427841D01*
X2428168Y1252771D01*
X2428969Y1252916D01*
X2429843Y1253098D01*
X2430680Y1253389D01*
X2431481Y1253790D01*
X2431845Y1254045D01*
X2432172Y1254336D01*
X2432209Y1254372D01*
X2432245Y1254409D01*
X2432318Y1254518D01*
X2432427Y1254664D01*
X2432536Y1254882D01*
X2432682Y1255100D01*
X2432827Y1255428D01*
X2432973Y1255755D01*
X2433119Y1256156D01*
X2433228Y1256629D01*
X2433374Y1257175D01*
X2433483Y1257757D01*
X2433592Y1258413D01*
X2433665Y1259104D01*
X2433738Y1259905D01*
Y1260742D01*
Y1275302D01*
X2437086D01*
Y1260742D01*
D02*
G37*
D53*
X0Y0D02*
X3700000D01*
Y3700000D01*
X0D02*
X3700000D01*
X0Y0D02*
Y3700000D01*
D76*
X1048740Y3237000D02*
G03*
X1048740Y3237000I-78740J0D01*
G01*
%TF.MD5,f6a823d0eee3acbbfec62f79031bedee*%
M02*
