%TF.GenerationSoftware,Altium Limited,Altium Designer,20.2.4 (192)*%
G04 Layer_Color=8388736*
%FSLAX26Y26*%
%MOIN*%
%TF.SameCoordinates,E583F5DD-14CA-44D8-B3B7-8EACC7EC20E5*%
%TF.FilePolarity,Negative*%
%TF.FileFunction,Soldermask,Top*%
%TF.Part,Single*%
G01*
G75*
%TA.AperFunction,SMDPad,CuDef*%
%ADD14R,0.063161X0.037486*%
G04:AMPARAMS|DCode=15|XSize=63.161mil|YSize=37.486mil|CornerRadius=18.743mil|HoleSize=0mil|Usage=FLASHONLY|Rotation=0.000|XOffset=0mil|YOffset=0mil|HoleType=Round|Shape=RoundedRectangle|*
%AMROUNDEDRECTD15*
21,1,0.063161,0.000000,0,0,0.0*
21,1,0.025676,0.037486,0,0,0.0*
1,1,0.037485,0.012838,0.000000*
1,1,0.037485,-0.012838,0.000000*
1,1,0.037485,-0.012838,0.000000*
1,1,0.037485,0.012838,0.000000*
%
%ADD15ROUNDEDRECTD15*%
G04:AMPARAMS|DCode=16|XSize=63.161mil|YSize=128.43mil|CornerRadius=18.633mil|HoleSize=0mil|Usage=FLASHONLY|Rotation=0.000|XOffset=0mil|YOffset=0mil|HoleType=Round|Shape=RoundedRectangle|*
%AMROUNDEDRECTD16*
21,1,0.063161,0.091165,0,0,0.0*
21,1,0.025896,0.128430,0,0,0.0*
1,1,0.037265,0.012948,-0.045583*
1,1,0.037265,-0.012948,-0.045583*
1,1,0.037265,-0.012948,0.045583*
1,1,0.037265,0.012948,0.045583*
%
%ADD16ROUNDEDRECTD16*%
%ADD18R,0.022671X0.059238*%
G04:AMPARAMS|DCode=19|XSize=59.238mil|YSize=22.671mil|CornerRadius=11.335mil|HoleSize=0mil|Usage=FLASHONLY|Rotation=90.000|XOffset=0mil|YOffset=0mil|HoleType=Round|Shape=RoundedRectangle|*
%AMROUNDEDRECTD19*
21,1,0.059238,0.000000,0,0,90.0*
21,1,0.036567,0.022671,0,0,90.0*
1,1,0.022670,0.000000,0.018284*
1,1,0.022670,0.000000,-0.018284*
1,1,0.022670,0.000000,-0.018284*
1,1,0.022670,0.000000,0.018284*
%
%ADD19ROUNDEDRECTD19*%
G04:AMPARAMS|DCode=26|XSize=65.174mil|YSize=14.991mil|CornerRadius=7.495mil|HoleSize=0mil|Usage=FLASHONLY|Rotation=0.000|XOffset=0mil|YOffset=0mil|HoleType=Round|Shape=RoundedRectangle|*
%AMROUNDEDRECTD26*
21,1,0.065174,0.000000,0,0,0.0*
21,1,0.050184,0.014991,0,0,0.0*
1,1,0.014991,0.025092,0.000000*
1,1,0.014991,-0.025092,0.000000*
1,1,0.014991,-0.025092,0.000000*
1,1,0.014991,0.025092,0.000000*
%
%ADD26ROUNDEDRECTD26*%
%ADD27R,0.065174X0.014991*%
%ADD31R,0.098425X0.039370*%
%TA.AperFunction,ComponentPad*%
%ADD55C,0.067055*%
%ADD56R,0.067055X0.067055*%
%ADD57C,0.143827*%
%ADD58C,0.063906*%
%ADD59C,0.068000*%
%ADD60R,0.067055X0.067055*%
%ADD61O,0.086740X0.110362*%
%ADD62O,0.086740X0.067055*%
%ADD63C,0.204850*%
%ADD64C,0.074929*%
%ADD65R,0.074929X0.074929*%
%ADD66O,0.110362X0.086740*%
%ADD67C,0.047370*%
G04:AMPARAMS|DCode=68|XSize=63.118mil|YSize=63.118mil|CornerRadius=5.929mil|HoleSize=0mil|Usage=FLASHONLY|Rotation=0.000|XOffset=0mil|YOffset=0mil|HoleType=Round|Shape=RoundedRectangle|*
%AMROUNDEDRECTD68*
21,1,0.063118,0.051260,0,0,0.0*
21,1,0.051260,0.063118,0,0,0.0*
1,1,0.011858,0.025630,-0.025630*
1,1,0.011858,-0.025630,-0.025630*
1,1,0.011858,-0.025630,0.025630*
1,1,0.011858,0.025630,0.025630*
%
%ADD68ROUNDEDRECTD68*%
%ADD69C,0.063118*%
%ADD70C,0.086740*%
%TA.AperFunction,NonConductor*%
%ADD82R,0.071850X0.099410*%
%TA.AperFunction,SMDPad,CuDef*%
%ADD83R,0.047370X0.051307*%
%ADD84R,0.051307X0.047370*%
%ADD85R,0.034000X0.088000*%
G04:AMPARAMS|DCode=86|XSize=55.244mil|YSize=67.055mil|CornerRadius=15.811mil|HoleSize=0mil|Usage=FLASHONLY|Rotation=270.000|XOffset=0mil|YOffset=0mil|HoleType=Round|Shape=RoundedRectangle|*
%AMROUNDEDRECTD86*
21,1,0.055244,0.035433,0,0,270.0*
21,1,0.023622,0.067055,0,0,270.0*
1,1,0.031622,-0.017717,-0.011811*
1,1,0.031622,-0.017717,0.011811*
1,1,0.031622,0.017717,0.011811*
1,1,0.031622,0.017717,-0.011811*
%
%ADD86ROUNDEDRECTD86*%
%ADD87O,0.085598X0.031701*%
%ADD88R,0.039496X0.039496*%
%ADD89R,0.070992X0.039496*%
%ADD90R,0.055244X0.063118*%
G04:AMPARAMS|DCode=91|XSize=114.299mil|YSize=53.276mil|CornerRadius=9.659mil|HoleSize=0mil|Usage=FLASHONLY|Rotation=180.000|XOffset=0mil|YOffset=0mil|HoleType=Round|Shape=RoundedRectangle|*
%AMROUNDEDRECTD91*
21,1,0.114299,0.033957,0,0,180.0*
21,1,0.094980,0.053276,0,0,180.0*
1,1,0.019319,-0.047490,0.016978*
1,1,0.019319,0.047490,0.016978*
1,1,0.019319,0.047490,-0.016978*
1,1,0.019319,-0.047490,-0.016978*
%
%ADD91ROUNDEDRECTD91*%
G04:AMPARAMS|DCode=92|XSize=94.614mil|YSize=67.055mil|CornerRadius=11.382mil|HoleSize=0mil|Usage=FLASHONLY|Rotation=90.000|XOffset=0mil|YOffset=0mil|HoleType=Round|Shape=RoundedRectangle|*
%AMROUNDEDRECTD92*
21,1,0.094614,0.044291,0,0,90.0*
21,1,0.071850,0.067055,0,0,90.0*
1,1,0.022764,0.022146,0.035925*
1,1,0.022764,0.022146,-0.035925*
1,1,0.022764,-0.022146,-0.035925*
1,1,0.022764,-0.022146,0.035925*
%
%ADD92ROUNDEDRECTD92*%
%TA.AperFunction,ConnectorPad*%
%ADD93R,0.086740X0.055244*%
%ADD94R,0.063118X0.055244*%
%ADD95R,0.059181X0.031622*%
%TA.AperFunction,SMDPad,CuDef*%
%ADD96O,0.027685X0.074929*%
%ADD97O,0.074929X0.027685*%
D14*
X763339Y2823157D02*
D03*
D15*
Y2733000D02*
D03*
Y2642843D02*
D03*
D16*
X1030661Y2733000D02*
D03*
D18*
X500598Y1763662D02*
D03*
D19*
X538000D02*
D03*
X575402D02*
D03*
Y1850338D02*
D03*
X538000D02*
D03*
X500598D02*
D03*
D26*
X2819236Y1766772D02*
D03*
Y1741181D02*
D03*
Y1715591D02*
D03*
Y1690000D02*
D03*
Y1664409D02*
D03*
Y1638819D02*
D03*
Y1613228D02*
D03*
X2596764D02*
D03*
Y1638819D02*
D03*
Y1664409D02*
D03*
Y1690000D02*
D03*
Y1715591D02*
D03*
Y1741181D02*
D03*
D27*
Y1766772D02*
D03*
D31*
X1852614Y2881787D02*
D03*
Y2980213D02*
D03*
D55*
X3622000Y915200D02*
D03*
X3522000D02*
D03*
X3422000D02*
D03*
X3602000Y2918000D02*
D03*
Y3018000D02*
D03*
Y3118000D02*
D03*
X136000Y1255000D02*
D03*
X3422000Y704800D02*
D03*
X3522000D02*
D03*
X3622000D02*
D03*
X2265000Y2779000D02*
D03*
Y2879000D02*
D03*
Y2979000D02*
D03*
Y3079000D02*
D03*
X1965000Y2779000D02*
D03*
Y2879000D02*
D03*
Y2979000D02*
D03*
X2093000Y280000D02*
D03*
Y180000D02*
D03*
X1993000Y280000D02*
D03*
Y180000D02*
D03*
X1893000Y280000D02*
D03*
Y180000D02*
D03*
X1793000Y280000D02*
D03*
Y180000D02*
D03*
X1693000Y280000D02*
D03*
X3522000Y1336000D02*
D03*
X3422000D02*
D03*
X3322000D02*
D03*
X3222000D02*
D03*
X3522000Y1125600D02*
D03*
X3422000D02*
D03*
X3322000D02*
D03*
X3222000D02*
D03*
X3422000Y494400D02*
D03*
X3522000D02*
D03*
X3622000D02*
D03*
X3422000Y284000D02*
D03*
X3522000D02*
D03*
X3622000D02*
D03*
D56*
X3322000Y915200D02*
D03*
X236000Y1255000D02*
D03*
X3322000Y704800D02*
D03*
X1965000Y3079000D02*
D03*
X1693000Y180000D02*
D03*
X3622000Y1336000D02*
D03*
Y1125600D02*
D03*
X3322000Y494400D02*
D03*
Y284000D02*
D03*
D57*
X182921Y2053008D02*
D03*
Y1578992D02*
D03*
D58*
X368354Y1766787D02*
D03*
Y1865213D02*
D03*
X289614D02*
D03*
Y1766787D02*
D03*
D59*
X570000Y1433000D02*
D03*
X774724D02*
D03*
D60*
X3602000Y2818000D02*
D03*
D61*
X1146000Y267000D02*
D03*
X1008204D02*
D03*
X415000D02*
D03*
X277204D02*
D03*
X780500D02*
D03*
X642704D02*
D03*
D62*
X626000Y3028000D02*
D03*
Y3126425D02*
D03*
Y3224850D02*
D03*
Y3323276D02*
D03*
D63*
X413000Y3521000D02*
D03*
X3358000Y3522000D02*
D03*
X407000Y2304000D02*
D03*
X3358000D02*
D03*
D64*
X145000Y2573000D02*
D03*
Y2673000D02*
D03*
D65*
Y2773000D02*
D03*
D66*
X158000Y3019204D02*
D03*
Y3157000D02*
D03*
D67*
X3627571Y1883080D02*
D03*
X3627671Y1568120D02*
D03*
D68*
X2457000Y1367000D02*
D03*
D69*
Y1167000D02*
D03*
Y1267000D02*
D03*
D70*
X2533819Y2942000D02*
D03*
X3335000D02*
D03*
D82*
X1587500Y2057493D02*
D03*
D83*
X1683413Y494488D02*
D03*
Y427558D02*
D03*
X2165556Y494488D02*
D03*
Y427558D02*
D03*
X670000Y2847465D02*
D03*
Y2780535D02*
D03*
Y2718465D02*
D03*
Y2651535D02*
D03*
X1213000Y661465D02*
D03*
Y594534D02*
D03*
X844000Y648465D02*
D03*
Y581534D02*
D03*
X478000Y644465D02*
D03*
Y577534D02*
D03*
X657000Y1804535D02*
D03*
Y1871466D02*
D03*
X728000Y2130464D02*
D03*
Y2063536D02*
D03*
X471000Y2130464D02*
D03*
Y2063536D02*
D03*
X1653000Y2036465D02*
D03*
Y1969534D02*
D03*
X1731000Y2036465D02*
D03*
Y1969534D02*
D03*
X1048000Y1847000D02*
D03*
Y1913930D02*
D03*
X1623000Y1405535D02*
D03*
Y1472466D02*
D03*
X1698000Y1404535D02*
D03*
Y1471466D02*
D03*
X1853000Y1534464D02*
D03*
Y1467536D02*
D03*
X1521715Y429536D02*
D03*
Y496464D02*
D03*
X494000Y2551465D02*
D03*
Y2484535D02*
D03*
X523000Y3165464D02*
D03*
Y3098536D02*
D03*
X297000Y2764465D02*
D03*
Y2697535D02*
D03*
X523000Y2966039D02*
D03*
Y2899111D02*
D03*
X2359000Y1353466D02*
D03*
Y1286535D02*
D03*
X727000Y3242535D02*
D03*
Y3309465D02*
D03*
X1762786Y496464D02*
D03*
Y429536D02*
D03*
X2003857Y496464D02*
D03*
Y429536D02*
D03*
X2244929Y496464D02*
D03*
Y429536D02*
D03*
X2486000Y496464D02*
D03*
Y429536D02*
D03*
X1442342Y427558D02*
D03*
Y494488D02*
D03*
X1924484Y427558D02*
D03*
Y494488D02*
D03*
X2406627Y427558D02*
D03*
Y494488D02*
D03*
D84*
X3365464Y1036000D02*
D03*
X3298536D02*
D03*
X580465Y1585000D02*
D03*
X513534D02*
D03*
X388536Y2902000D02*
D03*
X455464D02*
D03*
X197464Y1135000D02*
D03*
X130536D02*
D03*
X783535Y1278000D02*
D03*
X850466D02*
D03*
X569465D02*
D03*
X502534D02*
D03*
X721464Y1573000D02*
D03*
X654536D02*
D03*
X1365464Y1725000D02*
D03*
X1298536D02*
D03*
X1365464Y1786000D02*
D03*
X1298536D02*
D03*
X1934536Y1377000D02*
D03*
X2001466D02*
D03*
X2419536Y1663000D02*
D03*
X2486464D02*
D03*
X2984464Y1646000D02*
D03*
X2917536D02*
D03*
X3059535Y1722000D02*
D03*
X3126465D02*
D03*
X2825465Y1835000D02*
D03*
X2758535D02*
D03*
X2289536Y1163000D02*
D03*
X2356464D02*
D03*
X3064536Y1508000D02*
D03*
X3131464D02*
D03*
X2488464Y1739000D02*
D03*
X2421536D02*
D03*
X2915536Y1716000D02*
D03*
X2982464D02*
D03*
X1934534Y1627000D02*
D03*
X2001465D02*
D03*
D85*
X999000Y581000D02*
D03*
Y823000D02*
D03*
X1049000Y581000D02*
D03*
X1099000D02*
D03*
X1049000Y823000D02*
D03*
X1099000D02*
D03*
X1149000Y581000D02*
D03*
Y823000D02*
D03*
X259000Y581000D02*
D03*
Y823000D02*
D03*
X309000Y581000D02*
D03*
X359000D02*
D03*
X309000Y823000D02*
D03*
X359000D02*
D03*
X409000Y581000D02*
D03*
Y823000D02*
D03*
X629000Y581000D02*
D03*
Y823000D02*
D03*
X679000Y581000D02*
D03*
X729000D02*
D03*
X679000Y823000D02*
D03*
X729000D02*
D03*
X779000Y581000D02*
D03*
Y823000D02*
D03*
D86*
X587307Y1657000D02*
D03*
X500693D02*
D03*
X322693Y2550000D02*
D03*
X409307D02*
D03*
D87*
X739000Y1992000D02*
D03*
Y1942000D02*
D03*
Y1892000D02*
D03*
Y1842000D02*
D03*
Y1792000D02*
D03*
Y1742000D02*
D03*
Y1692000D02*
D03*
Y1642000D02*
D03*
X954394Y1992000D02*
D03*
Y1942000D02*
D03*
Y1892000D02*
D03*
Y1842000D02*
D03*
Y1792000D02*
D03*
Y1742000D02*
D03*
Y1692000D02*
D03*
Y1642000D02*
D03*
D88*
X654000Y2065504D02*
D03*
Y2128496D02*
D03*
X541000Y2065504D02*
D03*
Y2128496D02*
D03*
D89*
X1588000Y2026488D02*
D03*
Y2087512D02*
D03*
D90*
X1998496Y1546307D02*
D03*
Y1459693D02*
D03*
X1935504D02*
D03*
Y1546307D02*
D03*
D91*
X617000Y2434945D02*
D03*
Y2553055D02*
D03*
X421000Y2667945D02*
D03*
Y2786055D02*
D03*
X565000D02*
D03*
Y2667945D02*
D03*
D92*
X417000Y3172677D02*
D03*
Y3007323D02*
D03*
D93*
X3619721Y1457488D02*
D03*
Y2068512D02*
D03*
D94*
X3237758Y2041766D02*
D03*
Y1463813D02*
D03*
D95*
X3204281Y1507120D02*
D03*
Y1550427D02*
D03*
Y1593734D02*
D03*
Y1637041D02*
D03*
Y1680348D02*
D03*
Y1723655D02*
D03*
Y1766962D02*
D03*
Y1810269D02*
D03*
Y1853576D02*
D03*
D96*
X1536764Y1561646D02*
D03*
X1568260D02*
D03*
X1599756D02*
D03*
X1631252D02*
D03*
X1662748D02*
D03*
X1694244D02*
D03*
X1725740D02*
D03*
X1757236D02*
D03*
Y1892354D02*
D03*
X1725740D02*
D03*
X1694244D02*
D03*
X1662748D02*
D03*
X1631252D02*
D03*
X1599756D02*
D03*
X1568260D02*
D03*
X1536764D02*
D03*
D97*
X1812354Y1616764D02*
D03*
Y1648260D02*
D03*
Y1679756D02*
D03*
Y1711252D02*
D03*
Y1742748D02*
D03*
Y1774244D02*
D03*
Y1805740D02*
D03*
Y1837236D02*
D03*
X1481646D02*
D03*
Y1805740D02*
D03*
Y1774244D02*
D03*
Y1742748D02*
D03*
Y1711252D02*
D03*
Y1679756D02*
D03*
Y1648260D02*
D03*
Y1616764D02*
D03*
%TF.MD5,29001fccd392705cd63f0ab0753ec12b*%
M02*
